<svg width="17" height="17" viewBox="0 0 17 17" fill="none" xmlns="http://www.w3.org/2000/svg">
<path d="M15.4931 14.5264C16.0332 14.5579 16.0332 14.5579 16.0332 15.089C16.0332 15.3186 16.0332 15.5481 16.0332 15.7822C16.0332 16.0702 15.9476 16.1557 15.6641 16.1557C13.8773 16.1557 12.0859 16.1557 10.2991 16.1557C7.13047 16.1557 3.96636 16.1557 0.79776 16.1557C0.43319 16.1557 0.370178 16.0927 0.370178 15.7237C0.370178 15.4536 0.370178 15.1836 0.370178 14.9135C0.370178 14.6164 0.451194 14.5399 0.752751 14.5354C0.79776 14.5354 0.842768 14.5354 0.910281 14.5354C0.910281 14.4724 0.910281 14.4139 0.910281 14.3554C0.910281 12.0285 0.910281 9.69701 0.910281 7.37006C0.910281 7.046 0.982295 6.97399 1.30636 6.97399C1.80145 6.97399 2.29204 6.97399 2.80064 6.97399C2.80064 6.90197 2.80064 6.83896 2.80064 6.78045C2.80064 5.17364 2.80064 3.56234 2.80064 1.95553C2.80064 1.65397 2.88166 1.57746 3.17871 1.57296C3.67831 1.57296 4.1779 1.57296 4.691 1.57296C4.691 1.31641 4.691 1.06886 4.691 0.825816C4.691 0.591771 4.78552 0.497253 5.01506 0.497253C7.13497 0.497253 9.25487 0.497253 11.3793 0.497253C11.6178 0.497253 11.7123 0.591771 11.7123 0.839319C11.7123 1.08236 11.7123 1.32091 11.7123 1.57746C12.1714 1.57746 12.617 1.57746 13.0671 1.57746C13.5847 1.57746 13.6027 1.59996 13.6027 2.11756C13.6027 3.67036 13.6027 5.22315 13.6027 6.77595C13.6027 6.83896 13.6027 6.89747 13.6027 6.97849C13.8052 6.97849 13.9988 6.97849 14.1968 6.97849C14.5209 6.97849 14.8494 6.97849 15.1735 6.97849C15.394 6.97849 15.4886 7.07751 15.4931 7.29805C15.4931 7.40607 15.4931 7.50959 15.4931 7.61761C15.4931 9.85454 15.4931 12.096 15.4931 14.3329C15.4931 14.3959 15.4931 14.4544 15.4931 14.5264ZM8.74177 14.5309C8.74177 13.7343 8.74177 12.9556 8.74177 12.1725C8.74177 11.9294 8.83629 11.8349 9.07484 11.8349C10.11 11.8349 11.1452 11.8349 12.1804 11.8349C12.4325 11.8349 12.5225 11.9294 12.5225 12.186C12.5225 12.9106 12.5225 13.6353 12.5225 14.3644C12.5225 14.4184 12.5225 14.4724 12.5225 14.5309C12.7115 14.5309 12.8826 14.5309 13.0536 14.5309C13.0536 10.3901 13.0536 6.26285 13.0536 2.12656C9.81298 2.12656 6.57686 2.12656 3.34975 2.12656C3.34975 6.27185 3.34975 10.3991 3.34975 14.5264C3.52978 14.5264 3.70531 14.5264 3.88085 14.5264C3.88085 13.7388 3.88085 12.9646 3.88085 12.186C3.88085 11.9249 3.97086 11.8349 4.23641 11.8349C5.25811 11.8349 6.28431 11.8349 7.306 11.8349C7.57155 11.8349 7.66157 11.9249 7.66157 12.1905C7.66157 12.9151 7.66157 13.6398 7.66157 14.3689C7.66157 14.4229 7.66157 14.4769 7.66157 14.5354C8.02614 14.5309 8.3727 14.5309 8.74177 14.5309ZM13.6117 7.51859C13.6117 9.86354 13.6117 12.195 13.6117 14.5264C14.0618 14.5264 14.5029 14.5264 14.944 14.5264C14.944 12.186 14.944 9.85454 14.944 7.51859C14.4984 7.51859 14.0573 7.51859 13.6117 7.51859ZM1.46389 7.52309C1.46389 9.85454 1.46389 12.1905 1.46389 14.5309C1.90497 14.5309 2.34605 14.5309 2.79614 14.5309C2.79614 12.1905 2.79614 9.85904 2.79614 7.52309C2.35056 7.52309 1.91397 7.52309 1.46389 7.52309ZM0.914782 15.6066C5.78021 15.6066 10.6321 15.6066 15.4841 15.6066C15.4841 15.4266 15.4841 15.2556 15.4841 15.0845C10.6231 15.0845 5.77121 15.0845 0.914782 15.0845C0.914782 15.2601 0.914782 15.4311 0.914782 15.6066ZM11.1587 1.56846C11.1587 1.37942 11.1587 1.20839 11.1587 1.04636C9.17385 1.04636 7.20248 1.04636 5.24011 1.04636C5.24011 1.23089 5.24011 1.40193 5.24011 1.56846C7.22498 1.56846 9.19186 1.56846 11.1587 1.56846ZM5.49215 14.5309C5.49215 13.8018 5.49215 13.0907 5.49215 12.384C5.13209 12.384 4.78102 12.384 4.42995 12.384C4.42995 13.1042 4.42995 13.8153 4.42995 14.5309C4.78552 14.5309 5.13659 14.5309 5.49215 14.5309ZM6.05026 12.3795C6.05026 13.1042 6.05026 13.8198 6.05026 14.5264C6.41033 14.5264 6.7614 14.5264 7.11246 14.5264C7.11246 13.8063 7.11246 13.0952 7.11246 12.3795C6.7569 12.3795 6.40583 12.3795 6.05026 12.3795ZM9.29088 12.3795C9.29088 13.1042 9.29088 13.8153 9.29088 14.5264C9.65095 14.5264 10.002 14.5264 10.3531 14.5264C10.3531 13.8063 10.3531 13.0952 10.3531 12.3795C9.99751 12.3795 9.65095 12.3795 9.29088 12.3795ZM11.9734 14.5309C11.9734 13.8063 11.9734 13.0952 11.9734 12.384C11.6133 12.384 11.2623 12.384 10.9112 12.384C10.9112 13.1042 10.9112 13.8153 10.9112 14.5309C11.2668 14.5309 11.6178 14.5309 11.9734 14.5309Z" fill="#C3C0C0"/>
</svg>
