<svg width="22" height="22" viewBox="0 0 22 22" fill="none" xmlns="http://www.w3.org/2000/svg">
<path d="M14.5217 15.8052C12.7781 17.1603 10.5838 17.7996 8.38563 17.5929C6.18745 17.3862 4.15066 16.349 2.68998 14.6926C1.2293 13.0361 0.454567 10.8849 0.523525 8.67696C0.592484 6.46903 1.49995 4.37042 3.06115 2.80842C4.62235 1.24642 6.71989 0.338493 8.92668 0.269499C11.1335 0.200505 13.2836 0.975636 14.9392 2.43706C16.5948 3.89849 17.6315 5.93632 17.8381 8.13563C18.0447 10.3349 17.4057 12.5303 16.0513 14.2748L21.0834 19.2907C21.5093 19.7153 21.51 20.405 21.0848 20.8304C20.6596 21.2558 19.9698 21.2555 19.545 20.8297L14.5325 15.8052H14.5217ZM9.20614 15.4579C10.0609 15.4579 10.9073 15.2894 11.697 14.9622C12.4867 14.6349 13.2042 14.1552 13.8086 13.5505C14.413 12.9458 14.8924 12.2279 15.2195 11.4378C15.5466 10.6477 15.715 9.8009 15.715 8.94571C15.715 8.09052 15.5466 7.2437 15.2195 6.45361C14.8924 5.66352 14.413 4.94562 13.8086 4.34091C13.2042 3.7362 12.4867 3.25652 11.697 2.92925C10.9073 2.60199 10.0609 2.43354 9.20614 2.43354C7.47989 2.43354 5.82435 3.11964 4.6037 4.34091C3.38306 5.56218 2.69731 7.21857 2.69731 8.94571C2.69731 10.6728 3.38306 12.3292 4.6037 13.5505C5.82435 14.7718 7.47989 15.4579 9.20614 15.4579Z" fill="#2A3042"/>
</svg>
